<svg xmlns="http://www.w3.org/2000/svg" viewBox="0 0 2570.95 1374.91"><defs><style>.cls-1{fill:#333;}.cls-2{fill:#ea1d76;}.cls-3{fill:#009bde;}.cls-3,.cls-8{stroke:#fff;stroke-miterlimit:10;}.cls-4{fill:#ff8300;}.cls-5{fill:#007cba;}.cls-6{fill:#c51a4a;}.cls-7{fill:#e16a2d;}.cls-8{fill:none;}</style></defs><g id="Layer_2" data-name="Layer 2"><g id="Layer_1-2" data-name="Layer 1"><path class="cls-1" d="M2105.16,1161.53c7.26,7.26,9.49,15.07,9.49,23.45a32.37,32.37,0,0,1-55.27,22.89l-91-91V1185c0,17.87-15.08,32.38-32.94,32.38A32.41,32.41,0,0,1,1903,1185V858.91a32.41,32.41,0,0,1,32.38-32.38c17.87,0,32.94,14.52,32.94,32.38v198.21l91-91c6.14-6.14,14.52-8.93,22.89-8.93a33,33,0,0,1,22.89,8.93,34.92,34.92,0,0,1,9.49,23.45,32.58,32.58,0,0,1-9.49,22.89l-74.82,74.82Z"/><path class="cls-1" d="M1622.32,989.56a32.41,32.41,0,0,1-32.38,32.38H1557v163a32.38,32.38,0,1,1-64.77,0v-163h-32.94a32.66,32.66,0,0,1,0-65.33h32.94V858.91a32.38,32.38,0,0,1,64.77,0v97.71h32.94A32.53,32.53,0,0,1,1622.32,989.56Z"/><path class="cls-1" d="M1876,1087.27c0,71.47-58.63,130.09-130.65,130.09-71.47,0-130.09-58.63-130.09-130.09,0-72,58.63-130.65,130.09-130.65C1817.37,956.62,1876,1015.25,1876,1087.27Zm-65.32,0a65,65,0,1,0-65.33,64.77A65.05,65.05,0,0,0,1810.67,1087.27Z"/><path class="cls-1" d="M1434.39,1118.55l.07,6.14a86.16,86.16,0,0,1-22.23,58.88c-19.3,21.44-47.64,33.48-80.58,33.85-36.85.42-70.55-17.63-87.63-46.47a35.78,35.78,0,0,1-4.66-16.7,31.86,31.86,0,0,1,15.88-28.1,33.64,33.64,0,0,1,16.14-4.65,33.29,33.29,0,0,1,28.66,16.43c6.26,10.54,20.26,14.29,30.87,14.17,14.52-.16,26.2-4.2,32.81-12.1a20.22,20.22,0,0,0,6-15.14c-2.87-6.67-27-18.12-46-22.37a3.36,3.36,0,0,1-2.24-.53c-33-9.12-72.93-30.45-73.49-80.13-.49-43.55,39.34-76.38,92.94-77a102.32,102.32,0,0,1,52.65,14.48,32.5,32.5,0,0,1-16.07,60.49,34.63,34.63,0,0,1-17.92-4.82c-5.06-3.29-12.34-4.89-17.92-4.82-20.1.23-28.38,8.7-28.35,10.93,0,3.91.13,11.17,24.77,18.15a213.8,213.8,0,0,1,40.35,13.5C1421.59,1072.91,1432.5,1099.59,1434.39,1118.55Z"/><path class="cls-1" d="M2205,1195.44c0,17.87-15.08,32.38-32.94,32.38a32.66,32.66,0,0,1,0-65.33A33,33,0,0,1,2205,1195.44Z"/><path class="cls-1" d="M2290.11,858.91V1185a32.37,32.37,0,0,1-25.46,31.56c-21.82,4.9-39.87-10.26-39.87-32.62V860c0-22.37,18-37.53,39.86-32.62A32.37,32.37,0,0,1,2290.11,858.91Z"/><path class="cls-1" d="M2474.92,1198.94l-3.91,6.14-55.83,123.39a32.13,32.13,0,0,1-29.59,19c-4.47,0-9.49-.56-14-2.79-11.73-5-18.43-17.31-18.43-29.59a29,29,0,0,1,2.79-13.4l53-117.81-85.43-180.34a30.28,30.28,0,0,1-3.35-14A32.54,32.54,0,0,1,2338.68,960a32,32,0,0,1,14-3.35,33.07,33.07,0,0,1,29.59,19L2445.88,1109,2509,975.61a33.07,33.07,0,0,1,29.59-19,32,32,0,0,1,14,3.35,32.54,32.54,0,0,1,18.43,29.59,30.27,30.27,0,0,1-3.35,14Z"/><path class="cls-2" d="M753.7,377.1A376.36,376.36,0,0,1,377.1,753.7a380.89,380.89,0,0,1-46.47-2.82A376.38,376.38,0,0,1,.5,377.1,376.51,376.51,0,0,1,643.4,110.8q7.81,7.81,15.1,16a533,533,0,0,0-154.78,39.58q-6.72,2.85-13.34,5.86A234.06,234.06,0,0,0,193.49,522.18a237,237,0,0,0,18.16,20.37,232.44,232.44,0,0,0,113,62.67,235.53,235.53,0,0,0,52.43,5.87,234.26,234.26,0,0,0,216.51-323,391.28,391.28,0,0,1,119.58-18.5q12.64,0,25.16.78A375.14,375.14,0,0,1,753.7,377.1Z"/><path class="cls-3" d="M1251.25,662.14a536.55,536.55,0,0,1-120.31,339.19q-2-5.22-4.14-10.38a277.31,277.31,0,0,0-86.43-111.67,392.47,392.47,0,0,0-302-608.94q-12.52-.78-25.16-.78a391.28,391.28,0,0,0-119.58,18.5q-16.83,5.38-33.22,12.32A392.44,392.44,0,0,0,324.67,605.21a232.44,232.44,0,0,1-113-62.67,237,237,0,0,1-18.16-20.37A539.46,539.46,0,0,1,490.38,172.26q6.62-3,13.34-5.86A533,533,0,0,1,658.5,126.81a546,546,0,0,1,54.69-2.73,537.68,537.68,0,0,1,538.06,538.06Z"/><path class="cls-4" d="M1148.51,1098.4a276.06,276.06,0,0,1-530.29,107.46q-3.16-7.47-5.85-15.07a546,546,0,0,0,169.22,5.13,132.89,132.89,0,0,0,90.91,35.87c68.15,0,124.53-51.37,132.44-117.43a133.46,133.46,0,0,0-65.5-131.29A133.33,133.33,0,0,0,747,1053.31q-16.76,1.42-33.78,1.43a391.52,391.52,0,0,1-110.29-15.67,276,276,0,0,1,437.46-159.78,277.31,277.31,0,0,1,86.43,111.67q2.18,5.16,4.14,10.38A274.25,274.25,0,0,1,1148.51,1098.4Z"/><path class="cls-3" d="M1005.89,1098.4a134.06,134.06,0,0,1-.95,16,537.23,537.23,0,0,1-223.35,81.56,546,546,0,0,1-169.22-5.13A537.77,537.77,0,0,1,176.14,695.67a376,376,0,0,0,154.49,55.2,392.07,392.07,0,0,0,382.55,303.86q17,0,33.78-1.43a390.78,390.78,0,0,0,192.48-70.24A133.45,133.45,0,0,1,1005.89,1098.4Z"/><path class="cls-5" d="M176.55,696.35s67.72,45.8,153.8,54.85c0,0,7.27,32.93,20.37,63.14,0,0-87.09-81.89-159.08-21C191.64,793.33,178.82,745.32,176.55,696.35Z"/><path class="cls-6" d="M594.12,288.3s65.81-23.16,144-17.59c0,0,12.61,38.38,15,91.78,0,0-43.44-76.38-143.71-16.87A228,228,0,0,0,594.12,288.3Z"/><path class="cls-5" d="M939.4,983.51s74.24,37.69,65.15,130.63c0,0-15.46,9.74-32.54,19.28,0,0,25.45-99.26-100.43-111.38A398.21,398.21,0,0,0,939.4,983.51Z"/><path class="cls-7" d="M612.92,1191.27s78.12,17,168.57,5A139.58,139.58,0,0,0,805.25,1214s-113.52-15.6-119.09,87.56C686.16,1301.52,637.22,1260.28,612.92,1191.27Z"/><path class="cls-8" d="M753.7,377.1A376.36,376.36,0,0,1,377.1,753.7a380.89,380.89,0,0,1-46.47-2.82A376.38,376.38,0,0,1,.5,377.1,376.51,376.51,0,0,1,643.4,110.8q7.81,7.81,15.1,16a533,533,0,0,0-154.78,39.58q-6.72,2.85-13.34,5.86A234.06,234.06,0,0,0,193.49,522.18a237,237,0,0,0,18.16,20.37,232.44,232.44,0,0,0,113,62.67,235.53,235.53,0,0,0,52.43,5.87,234.26,234.26,0,0,0,216.51-323,391.28,391.28,0,0,1,119.58-18.5q12.64,0,25.16.78A375.14,375.14,0,0,1,753.7,377.1Z"/><path class="cls-8" d="M1251.25,662.14a536.55,536.55,0,0,1-120.31,339.19q-2-5.22-4.14-10.38a277.31,277.31,0,0,0-86.43-111.67,392.47,392.47,0,0,0-302-608.94q-12.52-.78-25.16-.78a391.28,391.28,0,0,0-119.58,18.5q-16.83,5.38-33.22,12.32A392.44,392.44,0,0,0,324.67,605.21a232.44,232.44,0,0,1-113-62.67,237,237,0,0,1-18.16-20.37A539.46,539.46,0,0,1,490.38,172.26q6.62-3,13.34-5.86A533,533,0,0,1,658.5,126.81a546,546,0,0,1,54.69-2.73,537.68,537.68,0,0,1,538.06,538.06Z"/><path class="cls-8" d="M1148.51,1098.4a276.06,276.06,0,0,1-530.29,107.46q-3.16-7.47-5.85-15.07a546,546,0,0,0,169.22,5.13,132.89,132.89,0,0,0,90.91,35.87c68.15,0,124.53-51.37,132.44-117.43a133.46,133.46,0,0,0-65.5-131.29A133.33,133.33,0,0,0,747,1053.31q-16.76,1.42-33.78,1.43a391.52,391.52,0,0,1-110.29-15.67,276,276,0,0,1,437.46-159.78,277.31,277.31,0,0,1,86.43,111.67q2.18,5.16,4.14,10.38A274.25,274.25,0,0,1,1148.51,1098.4Z"/><path class="cls-8" d="M1005.89,1098.4a134.06,134.06,0,0,1-.95,16,537.23,537.23,0,0,1-223.35,81.56,546,546,0,0,1-169.22-5.13A537.77,537.77,0,0,1,176.14,695.67a376,376,0,0,0,154.49,55.2,392.07,392.07,0,0,0,382.55,303.86q17,0,33.78-1.43a390.78,390.78,0,0,0,192.48-70.24A133.45,133.45,0,0,1,1005.89,1098.4Z"/></g></g></svg>
