<svg xmlns="http://www.w3.org/2000/svg" viewBox="0 0 520 100">
  <!-- Rings mark (scaled down, left-aligned) -->
  <g transform="translate(8, 5) scale(0.065)">
    <path fill="#ea1d76" d="M753.7,377.1A376.36,376.36,0,0,1,377.1,753.7a380.89,380.89,0,0,1-46.47-2.82A376.38,376.38,0,0,1,.5,377.1,376.51,376.51,0,0,1,643.4,110.8q7.81,7.81,15.1,16a533,533,0,0,0-154.78,39.58q-6.72,2.85-13.34,5.86A234.06,234.06,0,0,0,193.49,522.18a237,237,0,0,0,18.16,20.37,232.44,232.44,0,0,0,113,62.67,235.53,235.53,0,0,0,52.43,5.87,234.26,234.26,0,0,0,216.51-323,391.28,391.28,0,0,1,119.58-18.5q12.64,0,25.16.78A375.14,375.14,0,0,1,753.7,377.1Z"/>
    <path fill="#009bde" d="M1251.25,662.14a536.55,536.55,0,0,1-120.31,339.19q-2-5.22-4.14-10.38a277.31,277.31,0,0,0-86.43-111.67,392.47,392.47,0,0,0-302-608.94q-12.52-.78-25.16-.78a391.28,391.28,0,0,0-119.58,18.5q-16.83,5.38-33.22,12.32A392.44,392.44,0,0,0,324.67,605.21a232.44,232.44,0,0,1-113-62.67,237,237,0,0,1-18.16-20.37A539.46,539.46,0,0,1,490.38,172.26q6.62-3,13.34-5.86A533,533,0,0,1,658.5,126.81a546,546,0,0,1,54.69-2.73,537.68,537.68,0,0,1,538.06,538.06Z"/>
    <path fill="#ff8300" d="M1148.51,1098.4a276.06,276.06,0,0,1-530.29,107.46q-3.16-7.47-5.85-15.07a546,546,0,0,0,169.22,5.13,132.89,132.89,0,0,0,90.91,35.87c68.15,0,124.53-51.37,132.44-117.43a133.46,133.46,0,0,0-65.5-131.29A133.33,133.33,0,0,0,747,1053.31q-16.76,1.42-33.78,1.43a391.52,391.52,0,0,1-110.29-15.67,276,276,0,0,1,437.46-159.78,277.31,277.31,0,0,1,86.43,111.67q2.18,5.16,4.14,10.38A274.25,274.25,0,0,1,1148.51,1098.4Z"/>
    <path fill="#009bde" d="M1005.89,1098.4a134.06,134.06,0,0,1-.95,16,537.23,537.23,0,0,1-223.35,81.56,546,546,0,0,1-169.22-5.13A537.77,537.77,0,0,1,176.14,695.67a376,376,0,0,0,154.49,55.2,392.07,392.07,0,0,0,382.55,303.86q17,0,33.78-1.43a390.78,390.78,0,0,0,192.48-70.24A133.45,133.45,0,0,1,1005.89,1098.4Z"/>
    <path fill="#007cba" d="M176.55,696.35s67.72,45.8,153.8,54.85c0,0,7.27,32.93,20.37,63.14,0,0-87.09-81.89-159.08-21C191.64,793.33,178.82,745.32,176.55,696.35Z"/>
    <path fill="#c51a4a" d="M594.12,288.3s65.81-23.16,144-17.59c0,0,12.61,38.38,15,91.78,0,0-43.44-76.38-143.71-16.87A228,228,0,0,0,594.12,288.3Z"/>
    <path fill="#007cba" d="M939.4,983.51s74.24,37.69,65.15,130.63c0,0-15.46,9.74-32.54,19.28,0,0,25.45-99.26-100.43-111.38A398.21,398.21,0,0,0,939.4,983.51Z"/>
    <path fill="#e16a2d" d="M612.92,1191.27s78.12,17,168.57,5A139.58,139.58,0,0,0,805.25,1214s-113.52-15.6-119.09,87.56C686.16,1301.52,637.22,1260.28,612.92,1191.27Z"/>
  </g>
  <!-- Text: stok.ly - large, bold, Syne-style geometric -->
  <text x="108" y="70" font-family="Syne, sans-serif" font-weight="700" font-size="56" fill="#0F1F2E" letter-spacing="-1.5">stok.ly</text>
</svg>
